<svg width="32" height="32" viewBox="0 0 32 32" fill="none"
    xmlns="http://www.w3.org/2000/svg">
    <!-- Background -->
    <rect width="32" height="32" rx="6" fill="#000000"/>

    <!-- Brain design -->
    <g transform="translate(4, 6)">
        <!-- Main brain shape -->
        <path d="M12 3C14.5 3 16.5 4.5 17 7C18.5 7.5 19.5 8.8 19.5 10.5C19.5 11.2 19.3 11.8 19 12.3C20 13 20.5 14.2 20.5 15.5C20.5 17.5 19 19 17 19H7C5 19 3.5 17.5 3.5 15.5C3.5 14.2 4 13 5 12.3C4.7 11.8 4.5 11.2 4.5 10.5C4.5 8.8 5.5 7.5 7 7C7.5 4.5 9.5 3 12 3Z" fill="#00ed97" stroke="#4ade80" stroke-width="0.5"/>

        <!-- Brain folds and details -->
        <path d="M12 5C10.5 5 9.2 5.8 8.5 7" stroke="#000000" stroke-width="0.8" stroke-linecap="round" fill="none"/>
        <path d="M15.5 7C15.2 8.2 14.5 9.2 13.5 9.8" stroke="#000000" stroke-width="0.8" stroke-linecap="round" fill="none"/>
        <path d="M8.5 9.8C7.5 9.2 6.8 8.2 6.5 7" stroke="#000000" stroke-width="0.8" stroke-linecap="round" fill="none"/>
        <path d="M12 11C13.5 11.5 14.8 12.5 15.5 14" stroke="#000000" stroke-width="0.8" stroke-linecap="round" fill="none"/>
        <path d="M12 11C10.5 11.5 9.2 12.5 8.5 14" stroke="#000000" stroke-width="0.8" stroke-linecap="round" fill="none"/>

        <!-- Central divide -->
        <line x1="12" y1="5" x2="12" y2="17" stroke="#000000" stroke-width="0.6" opacity="0.7"/>

        <!-- Neural dots -->
        <circle cx="9" cy="8" r="0.4" fill="#4ade80"/>
        <circle cx="15" cy="8" r="0.4" fill="#4ade80"/>
        <circle cx="10" cy="13" r="0.4" fill="#4ade80"/>
        <circle cx="14" cy="13" r="0.4" fill="#4ade80"/>
        <circle cx="12" cy="15" r="0.4" fill="#4ade80"/>
    </g>
</svg>
